<svg viewBox="0 0 52 53" fill="none" xmlns="http://www.w3.org/2000/svg">
<path d="M38.371 41.065V41.2716C38.3717 41.3603 38.4072 41.4452 38.4698 41.5077C38.5324 41.5702 38.617 41.6053 38.7052 41.6053H49.1558C49.8355 41.6053 50.4873 41.8771 50.9679 42.3608C51.4485 42.8446 51.7185 43.5008 51.7185 44.1849V44.4498C51.7185 44.7885 51.6522 45.1239 51.5234 45.4369C51.3946 45.7499 51.2059 46.0343 50.9679 46.2738C50.7299 46.5133 50.4474 46.7034 50.1365 46.833C49.8256 46.9626 49.4923 47.0294 49.1558 47.0294H39.2472C39.2034 47.0294 39.1601 47.0381 39.1197 47.055C39.0793 47.0719 39.0426 47.0968 39.0118 47.128C38.981 47.1593 38.9566 47.1964 38.9401 47.2372C38.9236 47.278 38.9153 47.3217 38.9157 47.3657V47.6173C38.9153 47.6612 38.9237 47.7048 38.9402 47.7454C38.9567 47.7861 38.9811 47.823 39.012 47.8541C39.0428 47.8851 39.0795 47.9097 39.1199 47.9263C39.1603 47.943 39.2036 47.9514 39.2472 47.951H48.2323C48.9538 47.951 49.6458 48.2395 50.156 48.7531C50.6662 49.2667 50.9528 49.9632 50.9528 50.6895V50.6895C50.9524 50.8189 50.9025 50.9432 50.8134 51.0365C49.6715 52.2362 45.9696 52.9911 43.2885 52.9911C40.8732 52.9911 38.7657 53.1923 36.6345 51.6853C36.3481 51.4825 36.1143 51.2132 35.9531 50.9001C35.7919 50.5871 35.708 50.2396 35.7084 49.887V48.6767C35.7089 48.5374 35.6974 48.3982 35.6742 48.2609V48.2609C35.6535 48.1446 35.6263 48.0297 35.5926 47.9166L35.5189 47.6835L35.4953 47.6253L35.3848 47.416C35.3101 47.2753 35.222 47.1422 35.1217 47.0188L34.9585 46.8201C34.9449 46.8047 34.9299 46.7905 34.9138 46.7778L34.4876 46.4255C33.7008 45.9137 33.1314 45.1253 32.8905 44.214C32.8254 43.954 32.7884 43.6876 32.78 43.4195C32.78 43.1997 32.7616 42.9163 32.7616 42.7309V40.6121C32.7609 40.5521 32.7444 40.4933 32.7139 40.4417C32.6834 40.3901 32.64 40.3475 32.5879 40.3181C32.1009 40.036 31.6964 39.6297 31.4151 39.1401C31.1338 38.6505 30.9856 38.0949 30.9856 37.5293V37.5293C30.9856 36.4699 32.3011 34.9259 32.8274 34.3512C32.9624 34.2022 33.0742 34.0334 33.1589 33.8506V33.8506C33.2475 33.6516 33.2992 33.438 33.3115 33.2203V33.2203C33.3314 32.8595 33.2758 32.4986 33.1484 32.1609V32.1609C33.0931 32.012 33.0197 31.8705 32.93 31.7398L32.5827 31.1889C32.5283 31.1185 32.4872 31.0386 32.4616 30.9532C32.3331 30.5949 32.269 30.2164 32.2722 29.8355V28.7761C32.2716 28.4434 32.3721 28.1184 32.5602 27.8448C32.7483 27.5712 33.0151 27.362 33.3246 27.2453C38.8283 25.2138 44.9061 25.4507 50.2372 27.9048C50.6791 28.1124 51.0529 28.4428 51.3144 28.8571C51.5759 29.2715 51.7143 29.7525 51.7132 30.2434V32.3966C51.7132 32.5566 51.6819 32.715 51.6211 32.8628C51.5603 33.0106 51.4711 33.1449 51.3587 33.2581C51.2463 33.3712 51.1129 33.4609 50.9661 33.5221C50.8192 33.5834 50.6619 33.6149 50.5029 33.6149H38.2C38.1564 33.6145 38.1131 33.6229 38.0727 33.6396C38.0324 33.6562 37.9957 33.6808 37.9648 33.7118C37.934 33.7429 37.9096 33.7798 37.893 33.8205C37.8765 33.8611 37.8682 33.9047 37.8685 33.9486V33.9486C37.8682 33.9926 37.8765 34.0363 37.893 34.0771C37.9095 34.1179 37.9338 34.155 37.9647 34.1863C37.9955 34.2175 38.0321 34.2424 38.0725 34.2593C38.1129 34.2762 38.1562 34.285 38.2 34.2849H49.4373C50.117 34.2849 50.7688 34.5567 51.2494 35.0405C51.73 35.5243 52 36.1804 52 36.8646V38.1517C51.9993 38.8354 51.729 39.4908 51.2485 39.974C50.768 40.4572 50.1165 40.7287 49.4373 40.7287H38.692C38.6057 40.7321 38.5241 40.769 38.4642 40.8317C38.4044 40.8944 38.371 40.9781 38.371 41.065ZM44.9987 7.32622C44.428 7.18108 43.8246 7.24491 43.2964 7.50631C42.8642 7.72919 42.5018 8.06811 42.2492 8.48553C41.9966 8.90296 41.8636 9.38261 41.8651 9.87139C41.8651 9.93495 41.8651 10.0647 41.8651 10.0647L41.9651 11.2936C42.081 12.4679 42.2868 13.6314 42.5808 14.7737C42.7699 15.4485 43.0001 16.111 43.2701 16.7574C43.749 17.9042 44.4962 19.917 44.4962 21.3684C44.494 22.5664 44.1266 23.7349 43.4438 24.716C45.7879 24.9764 48.0754 25.614 50.2188 26.6044C50.3612 26.6742 50.4976 26.7557 50.6266 26.8481L50.5161 26.3422C50.4197 25.8624 50.252 25.3999 50.0188 24.9703C49.5271 24.0917 49.2697 23.0999 49.2716 22.0914C49.2716 22.0384 49.2716 21.9749 49.2716 21.906C49.289 21.3527 49.3515 20.8017 49.4584 20.2587C49.6466 19.3081 49.7418 18.3412 49.7425 17.3718C49.7425 13.8097 48.8453 10.9811 46.7694 8.47035C46.6323 8.30452 46.475 8.1568 46.3011 8.03072L45.917 7.74998C45.6337 7.54441 45.3126 7.39765 44.9724 7.31828L44.9987 7.32622ZM31.6539 44.5239C31.5643 44.1704 31.514 43.808 31.5039 43.4433C31.5039 43.2023 31.4829 42.8977 31.4829 42.6991V41.0915C30.9324 40.6701 30.4857 40.1267 30.1777 39.5034C29.8697 38.8801 29.7086 38.1937 29.7069 37.4975C29.7069 36.3984 30.3726 35.1536 31.8618 33.4586C31.9104 33.4071 31.952 33.3492 31.9854 33.2865C32.0086 33.2308 32.0229 33.1718 32.0275 33.1117C32.038 32.9191 32.0066 32.7266 31.9354 32.5476C31.9171 32.5051 31.8951 32.4643 31.8696 32.4257L31.5539 31.9675C31.4257 31.7956 31.3253 31.6043 31.2566 31.4008C31.0758 30.8993 30.9867 30.369 30.9935 29.8355V28.7761C30.9916 28.1795 31.1718 27.5966 31.5097 27.1064C31.8475 26.6162 32.3268 26.2422 32.8826 26.035C35.4774 25.0732 38.2212 24.5827 40.9863 24.5863C41.3205 24.5863 41.6546 24.5863 41.9861 24.6101L42.4097 23.993C42.94 23.2259 43.2237 22.3135 43.2227 21.379C43.2227 20.4732 42.8123 18.9742 42.0966 17.2686C41.8065 16.5728 41.5587 15.86 41.3547 15.1339C41.21 14.6175 41.0442 13.6507 40.9126 12.8191C40.7659 11.8748 40.678 10.9221 40.6495 9.96674V9.72838C40.6335 9.18484 40.7472 8.64536 40.9811 8.15519C37.1519 3.67874 31.7865 0.820574 25.9558 0.15121C20.1251 -0.518153 14.2581 1.05054 9.52597 4.54413C4.7938 8.03773 1.54456 13.1992 0.426841 18.9983C-0.69088 24.7975 0.405144 30.8076 3.49613 35.829L16.591 15.4835L19.5615 28.6622L29.0149 13.8891L26.1023 12.5649L35.8373 7.97244L35.3295 18.7994L33.0221 16.5747L17.3961 40.9908L14.4282 27.7644L6.64289 39.8653C9.8559 43.1791 13.9702 45.4632 18.4688 46.4306C22.9675 47.398 27.6498 47.0056 31.9275 45.3026C31.8161 45.0507 31.7246 44.7903 31.6539 44.5239Z" fill="#E0E0E0"/>
</svg>
