<svg width="55" height="69" viewBox="0 0 55 69" fill="none" xmlns="http://www.w3.org/2000/svg">
<path d="M50.8364 20.2407H38.9641C38.8663 21.2681 38.7164 22.29 38.515 23.3023H50.8704C51.0524 23.3067 51.2254 23.3821 51.3525 23.5124C51.4797 23.6428 51.5508 23.8176 51.5507 23.9996V34.1778C49.7649 34.1814 48.0534 34.8934 46.792 36.1574C45.5305 37.4215 44.822 39.1343 44.822 40.9202C44.8211 41.9982 45.0814 43.0603 45.5806 44.0158C44.3679 45.0654 43.3649 46.3351 42.6244 47.7578C40.0172 46.6725 37.1221 46.4893 34.3989 47.2373V32.3272C34.7232 31.7625 35.0294 31.1865 35.3174 30.5991L41.2127 32.5688V30.3406L37.4707 24.9249H37.4129C37.6442 24.0405 37.8381 23.139 37.9878 22.2273L38.0184 22.064C38.0524 21.8395 38.083 21.615 38.1171 21.3837C38.1171 21.2476 38.1544 21.1115 38.1714 20.9754C38.1953 20.7815 38.2157 20.5877 38.2361 20.3904C38.2565 20.193 38.2735 20.0502 38.2871 19.8563C38.3007 19.6624 38.3178 19.5161 38.328 19.346C38.3382 19.1759 38.3586 18.9004 38.3688 18.6656L38.3892 18.2608C38.3892 17.8968 38.4096 17.5294 38.4096 17.1654C38.4131 13.6891 37.8229 10.2377 36.6645 6.96006C36.4127 6.24908 36.1338 5.55173 35.8344 4.86797C35.5351 4.18421 35.2085 3.50724 34.8581 2.85749C34.3385 1.87339 33.7639 0.919382 33.1368 0V0C32.5122 0.920954 31.9376 1.87482 31.4155 2.85749C31.0753 3.51404 30.7351 4.18421 30.4426 4.86797C30.15 5.55173 29.8643 6.24908 29.6126 6.96006C28.4541 10.2377 27.8639 13.6891 27.8674 17.1654C27.8674 17.5294 27.8674 17.8968 27.8878 18.2608C27.8878 18.3935 27.8879 18.5296 27.9083 18.6656C27.9083 18.8868 27.9287 19.1113 27.9457 19.346L27.9865 19.8563L28.0375 20.3904C28.0579 20.5877 28.0817 20.7815 28.1056 20.9754C28.1056 21.1115 28.1396 21.2476 28.16 21.3837C28.1906 21.6116 28.2212 21.8361 28.2587 22.064C28.2587 22.1185 28.2791 22.1729 28.2859 22.2273C28.4389 23.139 28.626 24.0405 28.8607 24.9249H28.8029L25.061 30.3406V32.5688L30.9529 30.5991C31.1331 30.9699 31.3237 31.3339 31.521 31.6979V47.3087C30.5826 46.4484 29.4365 45.8471 28.1953 45.5638C26.9541 45.2805 25.6606 45.325 24.4418 45.6929C24.3444 44.6362 23.9582 43.6267 23.3254 42.7749C22.6926 41.9231 21.8376 41.2618 20.854 40.8635C19.8705 40.4652 18.7963 40.3451 17.7491 40.5165C16.7019 40.6879 15.722 41.1442 14.9168 41.8353C12.9813 40.4816 10.6758 39.7571 8.31395 39.7602C7.57754 39.7609 6.84284 39.8316 6.11977 39.9711V34.6881L5.91907 34.4874L3.53782 35.4467L2.66357 33.2831V56.1772C2.66357 57.2872 3.10428 58.3519 3.88888 59.1371C4.67347 59.9223 5.73772 60.3639 6.84775 60.3648H22.9246C22.9246 60.9606 22.8072 61.5505 22.5791 62.1009C22.351 62.6513 22.0167 63.1514 21.5953 63.5725C21.1738 63.9936 20.6736 64.3275 20.123 64.5552C19.5725 64.7829 18.9824 64.8999 18.3867 64.8994H17.9036C17.6675 64.8992 17.4347 64.9549 17.2242 65.062C17.0137 65.169 16.8316 65.3243 16.6926 65.5151V65.5151C16.5161 65.7557 16.4153 66.0435 16.4032 66.3416C16.3911 66.6397 16.4681 66.9347 16.6245 67.1888L16.7061 67.3215C16.8406 67.5409 17.0292 67.7221 17.2537 67.8477C17.4782 67.9734 17.7313 68.0394 17.9886 68.0393H39.6785C39.9358 68.0394 40.1888 67.9734 40.4134 67.8477C40.6379 67.7221 40.8265 67.5409 40.9609 67.3215L41.0426 67.1888C41.1976 66.9341 41.2736 66.6391 41.2608 66.3411C41.2481 66.0432 41.1473 65.7557 40.9712 65.5151V65.5151C40.8322 65.3243 40.65 65.169 40.4395 65.062C40.229 64.9549 39.9962 64.8992 39.7601 64.8994H38.9539C37.7512 64.8994 36.5978 64.4217 35.7474 63.5713C34.897 62.7209 34.4193 61.5675 34.4193 60.3648H50.8125C51.9231 60.3648 52.9883 59.9236 53.7736 59.1383C54.5589 58.353 55.0002 57.2878 55.0002 56.1772V24.4283C55.0002 23.3218 54.5622 22.2602 53.782 21.4756C53.0018 20.6909 51.9429 20.247 50.8364 20.2407V20.2407Z" fill="#E0E0E0"/>
<path d="M16.9507 23.2916H27.7854C27.5881 22.2847 27.4384 21.2641 27.3364 20.23H15.3145V20.5702L17.6719 21.5703L16.9507 23.2916Z" fill="#E0E0E0"/>
<path d="M4.05155 31.0689L4.72169 32.7222L6.43621 32.0282L7.74929 33.3379L9.00794 32.0793L10.651 32.7732L11.3756 31.0689H13.2296V29.2864L14.8828 28.6162L14.1889 26.8983L15.4986 25.5886L14.2365 24.33L14.9339 22.6869L13.2296 21.9623V20.1083H11.4436L10.7769 18.4551L9.05898 19.149L7.74929 17.8394L6.48724 19.1014L4.84415 18.404L4.12297 20.1083H2.26901V21.8943L0.615745 22.561L1.30968 24.2789L0 25.5886L1.25869 26.8507L0.561304 28.4938L2.26901 29.2183V31.0689H4.05155Z" fill="#E0E0E0"/>
</svg>
