<svg viewBox="0 0 74 50" fill="none" xmlns="http://www.w3.org/2000/svg">
<path d="M71.1978 0H2.7047C1.98737 0 1.29942 0.28496 0.792187 0.792189C0.284958 1.29942 0 1.98735 0 2.70468V9.03043H73.8988V2.70468C73.8993 2.34967 73.8298 1.99804 73.6943 1.66992C73.5587 1.34179 73.3599 1.04359 73.109 0.792391C72.8581 0.541189 72.5602 0.341915 72.2323 0.205946C71.9043 0.069977 71.5528 -3.32182e-07 71.1978 0V0ZM4.50783 6.00428C4.21551 6.00428 3.92976 5.91759 3.68671 5.75519C3.44366 5.59279 3.25422 5.36195 3.14236 5.09189C3.03049 4.82182 3.00122 4.52465 3.05825 4.23795C3.11528 3.95125 3.25604 3.68791 3.46274 3.48121C3.66944 3.27452 3.93279 3.13375 4.21949 3.07672C4.50619 3.01969 4.80336 3.04895 5.07342 3.16082C5.34349 3.27268 5.57432 3.46213 5.73672 3.70518C5.89912 3.94823 5.9858 4.23399 5.9858 4.5263C5.9858 4.91829 5.83009 5.29422 5.55291 5.57139C5.27574 5.84856 4.89981 6.00428 4.50783 6.00428ZM9.91722 6.13729C9.5964 6.13729 9.28279 6.04215 9.01604 5.86391C8.74929 5.68568 8.54139 5.43235 8.41861 5.13595C8.29584 4.83956 8.26372 4.51341 8.32631 4.19875C8.3889 3.8841 8.54339 3.59508 8.77024 3.36823C8.99709 3.14138 9.28612 2.98688 9.60077 2.92429C9.91542 2.8617 10.2416 2.89382 10.538 3.01659C10.8344 3.13937 11.0877 3.34727 11.2659 3.61402C11.4442 3.88077 11.5393 4.19439 11.5393 4.51521C11.5417 4.72915 11.5018 4.94147 11.4219 5.13992C11.3419 5.33838 11.2235 5.51903 11.0734 5.67152C10.9233 5.82401 10.7445 5.9453 10.5474 6.02841C10.3502 6.11151 10.1386 6.1548 9.92461 6.15576L9.91722 6.13729ZM15.3266 6.13729C15.0058 6.13729 14.6922 6.04215 14.4254 5.86391C14.1587 5.68568 13.9508 5.43235 13.828 5.13595C13.7052 4.83956 13.6731 4.51341 13.7357 4.19875C13.7983 3.8841 13.9528 3.59508 14.1796 3.36823C14.4065 3.14138 14.6955 2.98688 15.0102 2.92429C15.3248 2.8617 15.651 2.89382 15.9474 3.01659C16.2438 3.13937 16.4971 3.34727 16.6753 3.61402C16.8536 3.88077 16.9487 4.19439 16.9487 4.51521C16.9516 4.72928 16.9121 4.94181 16.8323 5.14049C16.7525 5.33916 16.6341 5.52004 16.4839 5.67263C16.3337 5.82521 16.1547 5.94649 15.9574 6.02942C15.76 6.11236 15.5481 6.15529 15.334 6.15576L15.3266 6.13729Z" fill="#E0E0E0"/>
<path d="M0 47.2956C0 48.013 0.284958 48.7009 0.792187 49.2081C1.29942 49.7154 1.98737 50.0003 2.7047 50.0003H71.1978C71.5528 50.0003 71.9043 49.9303 72.2323 49.7944C72.5602 49.6584 72.8581 49.4591 73.109 49.2079C73.3599 48.9567 73.5587 48.6585 73.6943 48.3304C73.8298 48.0023 73.8993 47.6506 73.8988 47.2956V10.1504H0V47.2956ZM38.6047 46.1391H4.44132C4.09775 46.1462 3.76381 46.0253 3.50435 45.8C3.24488 45.5747 3.07841 45.2609 3.03724 44.9198C3.01919 44.7324 3.04056 44.5434 3.09997 44.3648C3.15939 44.1862 3.25553 44.022 3.38221 43.8828C3.50889 43.7435 3.66331 43.6324 3.83554 43.5564C4.00776 43.4805 4.19397 43.4414 4.3822 43.4418H38.6047C38.9507 43.4599 39.2765 43.6101 39.515 43.8614C39.7535 44.1127 39.8864 44.4459 39.8864 44.7923C39.8864 45.1387 39.7535 45.472 39.515 45.7232C39.2765 45.9745 38.9507 46.1247 38.6047 46.1428V46.1391ZM38.6047 40.7334H4.44132C4.09797 40.7396 3.76447 40.6185 3.50519 40.3933C3.2459 40.1681 3.0792 39.8549 3.03724 39.5141C3.01977 39.3269 3.04155 39.138 3.10117 38.9597C3.1608 38.7813 3.25697 38.6174 3.38354 38.4783C3.51011 38.3392 3.66429 38.228 3.83625 38.1519C4.0082 38.0757 4.19414 38.0363 4.3822 38.0361H38.6047C38.9634 38.0361 39.3074 38.1786 39.561 38.4322C39.8146 38.6858 39.9571 39.0298 39.9571 39.3885C39.9571 39.7471 39.8146 40.0911 39.561 40.3447C39.3074 40.5983 38.9634 40.7408 38.6047 40.7408V40.7334ZM38.6047 35.324H4.44132C4.09797 35.3302 3.76447 35.2091 3.50519 34.9839C3.2459 34.7587 3.0792 34.4455 3.03724 34.1047C3.01977 33.9175 3.04155 33.7286 3.10117 33.5503C3.1608 33.3719 3.25697 33.208 3.38354 33.0689C3.51011 32.9298 3.66429 32.8186 3.83625 32.7425C4.0082 32.6664 4.19414 32.6269 4.3822 32.6267H38.6047C38.9634 32.6267 39.3074 32.7692 39.561 33.0228C39.8146 33.2764 39.9571 33.6204 39.9571 33.9791C39.9571 34.3377 39.8146 34.6817 39.561 34.9353C39.3074 35.1889 38.9634 35.3314 38.6047 35.3314V35.324ZM67.4733 46.1391H44.0104C43.8271 46.1487 43.6438 46.1209 43.4716 46.0573C43.2994 45.9938 43.142 45.8959 43.0088 45.7695C42.8757 45.6432 42.7697 45.4911 42.6972 45.3224C42.6248 45.1538 42.5874 44.9721 42.5874 44.7886C42.5874 44.6051 42.6248 44.4234 42.6972 44.2548C42.7697 44.0862 42.8757 43.934 43.0088 43.8077C43.142 43.6813 43.2994 43.5834 43.4716 43.5199C43.6438 43.4563 43.8271 43.4285 44.0104 43.4381H67.4142C67.7578 43.4311 68.0917 43.5519 68.3512 43.7772C68.6106 44.0026 68.7771 44.3163 68.8183 44.6574C68.8369 44.8451 68.8159 45.0346 68.7567 45.2136C68.6976 45.3926 68.6015 45.5573 68.4748 45.6969C68.348 45.8365 68.1934 45.948 68.0209 46.0242C67.8484 46.1004 67.6619 46.1395 67.4733 46.1391V46.1391ZM67.4733 40.7334H44.0104C43.6518 40.7334 43.3078 40.5909 43.0542 40.3373C42.8006 40.0837 42.6581 39.7397 42.6581 39.3811C42.6581 39.0224 42.8006 38.6784 43.0542 38.4248C43.3078 38.1712 43.6518 38.0287 44.0104 38.0287H67.4142C67.7575 38.0225 68.091 38.1437 68.3503 38.3688C68.6096 38.594 68.7763 38.9072 68.8183 39.248C68.8368 39.4359 68.8159 39.6255 68.7567 39.8047C68.6976 39.984 68.6016 40.1488 68.4749 40.2888C68.3482 40.4287 68.1937 40.5405 68.0212 40.6171C67.8487 40.6937 67.662 40.7333 67.4733 40.7334V40.7334ZM52.2945 14.7358C52.2945 14.3771 52.437 14.0332 52.6906 13.7796C52.9442 13.526 53.2882 13.3835 53.6468 13.3835H67.4733C67.832 13.3835 68.1759 13.526 68.4296 13.7796C68.6832 14.0332 68.8257 14.3771 68.8257 14.7358V28.566C68.8257 28.7434 68.7906 28.9191 68.7226 29.0829C68.6546 29.2468 68.555 29.3956 68.4293 29.5209C68.3037 29.6462 68.1546 29.7455 67.9905 29.813C67.8265 29.8806 67.6507 29.9151 67.4733 29.9146H53.6505C53.4731 29.9151 53.2973 29.8806 53.1333 29.813C52.9692 29.7455 52.8201 29.6462 52.6945 29.5209C52.5689 29.3956 52.4692 29.2468 52.4012 29.0829C52.3332 28.9191 52.2982 28.7434 52.2982 28.566L52.2945 14.7358ZM41.3057 13.3835C41.5732 13.3835 41.8347 13.4628 42.0571 13.6114C42.2795 13.76 42.4528 13.9712 42.5551 14.2183C42.6575 14.4654 42.6843 14.7373 42.6321 14.9996C42.5799 15.262 42.4511 15.5029 42.262 15.6921C42.0729 15.8812 41.8319 16.01 41.5696 16.0622C41.3072 16.1144 41.0353 16.0876 40.7882 15.9852C40.5411 15.8829 40.3299 15.7095 40.1813 15.4871C40.0327 15.2647 39.9534 15.0033 39.9534 14.7358C39.9534 14.3771 40.0959 14.0332 40.3495 13.7796C40.6031 13.526 40.9471 13.3835 41.3057 13.3835V13.3835ZM41.3057 17.9947C41.5732 17.9947 41.8347 18.0741 42.0571 18.2227C42.2795 18.3713 42.4528 18.5825 42.5551 18.8296C42.6575 19.0767 42.6843 19.3486 42.6321 19.6109C42.5799 19.8732 42.4511 20.1142 42.262 20.3034C42.0729 20.4925 41.8319 20.6213 41.5696 20.6735C41.3072 20.7256 41.0353 20.6989 40.7882 20.5965C40.5411 20.4942 40.3299 20.3208 40.1813 20.0984C40.0327 19.876 39.9534 19.6146 39.9534 19.3471C39.9514 19.1683 39.985 18.9908 40.0521 18.825C40.1191 18.6593 40.2184 18.5084 40.3442 18.3813C40.47 18.2541 40.6197 18.1532 40.7848 18.0843C40.9498 18.0154 41.1269 17.98 41.3057 17.98V17.9947ZM41.3057 22.6023C41.5732 22.6023 41.8347 22.6817 42.0571 22.8303C42.2795 22.9789 42.4528 23.19 42.5551 23.4372C42.6575 23.6843 42.6843 23.9562 42.6321 24.2185C42.5799 24.4808 42.4511 24.7218 42.262 24.9109C42.0729 25.1001 41.8319 25.2289 41.5696 25.2811C41.3072 25.3332 41.0353 25.3064 40.7882 25.2041C40.5411 25.1017 40.3299 24.9284 40.1813 24.706C40.0327 24.4836 39.9534 24.2222 39.9534 23.9547C39.9534 23.596 40.0959 23.252 40.3495 22.9984C40.6031 22.7448 40.9471 22.6023 41.3057 22.6023V22.6023ZM35.9 13.365C36.1675 13.365 36.429 13.4443 36.6514 13.5929C36.8738 13.7415 37.0471 13.9527 37.1494 14.1998C37.2518 14.4469 37.2786 14.7188 37.2264 14.9812C37.1742 15.2435 37.0454 15.4845 36.8563 15.6736C36.6672 15.8627 36.4262 15.9915 36.1639 16.0437C35.9015 16.0959 35.6296 16.0691 35.3825 15.9667C35.1354 15.8644 34.9242 15.691 34.7756 15.4687C34.627 15.2463 34.5477 14.9848 34.5477 14.7173C34.5526 14.3593 34.6992 14.0178 34.9555 13.7678C35.2118 13.5177 35.5568 13.3795 35.9148 13.3835L35.9 13.365ZM35.9148 17.98C36.1823 17.98 36.4437 18.0593 36.6661 18.2079C36.8885 18.3565 37.0619 18.5677 37.1642 18.8148C37.2666 19.0619 37.2934 19.3338 37.2412 19.5961C37.189 19.8585 37.0602 20.0994 36.8711 20.2886C36.6819 20.4777 36.441 20.6065 36.1786 20.6587C35.9163 20.7109 35.6444 20.6841 35.3973 20.5817C35.1502 20.4794 34.939 20.306 34.7904 20.0836C34.6418 19.8612 34.5625 19.5998 34.5625 19.3323C34.5625 18.9736 34.7049 18.6297 34.9586 18.3761C35.2122 18.1224 35.5562 17.98 35.9148 17.98V17.98ZM35.9148 22.5875C36.1823 22.5875 36.4437 22.6669 36.6661 22.8155C36.8885 22.9641 37.0619 23.1753 37.1642 23.4224C37.2666 23.6695 37.2934 23.9414 37.2412 24.2037C37.189 24.4661 37.0602 24.707 36.8711 24.8962C36.6819 25.0853 36.441 25.2141 36.1786 25.2663C35.9163 25.3184 35.6444 25.2917 35.3973 25.1893C35.1502 25.087 34.939 24.9136 34.7904 24.6912C34.6418 24.4688 34.5625 24.2074 34.5625 23.9399C34.5664 23.5838 34.7106 23.2436 34.9637 22.9932C35.2169 22.7428 35.5587 22.6023 35.9148 22.6023V22.5875ZM4.39698 13.3502H23.6846C24.0432 13.3502 24.3872 13.4927 24.6408 13.7463C24.8944 13.9999 25.0369 14.3439 25.0369 14.7026C25.0369 15.0612 24.8944 15.4052 24.6408 15.6588C24.3872 15.9124 24.0432 16.0549 23.6846 16.0549H4.3822C4.02353 16.0549 3.67956 15.9124 3.42595 15.6588C3.17233 15.4052 3.02985 15.0612 3.02985 14.7026C3.02985 14.3439 3.17233 13.9999 3.42595 13.7463C3.67956 13.4927 4.02353 13.3502 4.3822 13.3502H4.39698ZM4.39698 17.9615H23.6846C23.8679 17.9519 24.0512 17.9797 24.2234 18.0433C24.3956 18.1068 24.553 18.2047 24.6862 18.3311C24.8193 18.4574 24.9253 18.6095 24.9978 18.7782C25.0702 18.9468 25.1076 19.1284 25.1076 19.312C25.1076 19.4955 25.0702 19.6772 24.9978 19.8458C24.9253 20.0144 24.8193 20.1666 24.6862 20.2929C24.553 20.4193 24.3956 20.5172 24.2234 20.5807C24.0512 20.6443 23.8679 20.6721 23.6846 20.6625H4.3822C4.19891 20.6721 4.01558 20.6443 3.84339 20.5807C3.67119 20.5172 3.51373 20.4193 3.3806 20.2929C3.24747 20.1666 3.14145 20.0144 3.069 19.8458C2.99655 19.6772 2.95919 19.4955 2.95919 19.312C2.95919 19.1284 2.99655 18.9468 3.069 18.7782C3.14145 18.6095 3.24747 18.4574 3.3806 18.3311C3.51373 18.2047 3.67119 18.1068 3.84339 18.0433C4.01558 17.9797 4.19891 17.9519 4.3822 17.9615H4.39698ZM4.39698 27.1989H48.2485C48.5945 27.217 48.9203 27.3671 49.1588 27.6184C49.3973 27.8697 49.5302 28.2029 49.5302 28.5493C49.5302 28.8958 49.3973 29.229 49.1588 29.4803C48.9203 29.7316 48.5945 29.8817 48.2485 29.8999H4.3822C4.19891 29.9094 4.01558 29.8816 3.84339 29.8181C3.67119 29.7545 3.51373 29.6566 3.3806 29.5303C3.24747 29.4039 3.14145 29.2518 3.069 29.0831C2.99655 28.9145 2.95919 28.7329 2.95919 28.5493C2.95919 28.3658 2.99655 28.1842 3.069 28.0155C3.14145 27.8469 3.24747 27.6948 3.3806 27.5684C3.51373 27.4421 3.67119 27.3442 3.84339 27.2806C4.01558 27.2171 4.19891 27.1893 4.3822 27.1989H4.39698Z" fill="#E0E0E0"/>
</svg>
