<svg  viewBox="0 0 63 50" fill="none" xmlns="http://www.w3.org/2000/svg">
<path d="M63 3.72324V40.6013C62.9992 41.5888 62.6051 42.5356 61.9042 43.2342C61.2032 43.9327 60.2527 44.326 59.261 44.3276H56.5898V42.5523H59.261C59.7803 42.5514 60.2782 42.3456 60.6455 41.9799C61.0127 41.6142 61.2194 41.1184 61.2202 40.6013V3.72324C61.2194 3.20606 61.0127 2.7103 60.6455 2.34459C60.2782 1.97888 59.7803 1.77306 59.261 1.77223H32.1931C31.674 1.77307 31.1765 1.97898 30.8097 2.34478C30.443 2.71058 30.237 3.20634 30.237 3.72324V3.8989H28.4541V3.72324C28.4549 2.73603 28.8491 1.78949 29.5501 1.09143C30.2511 0.393362 31.2017 0.000830637 32.1931 0H59.261C60.2524 0.000830637 61.2029 0.393362 61.904 1.09143C62.605 1.78949 62.9992 2.73603 63 3.72324ZM50.0063 31.348C50.0063 26.4799 43.4606 27.0571 43.4606 24.1776C43.4606 22.948 44.2481 22.2579 45.5617 22.2579C46.7146 22.2579 47.4517 22.719 48.34 23.544L49.7606 21.9411C48.8635 20.9131 47.6222 20.2443 46.2673 20.0591V17.6564H44.3584V20.0999C42.1723 20.4857 40.7831 22.0666 40.7831 24.3156C40.7831 28.8105 47.3256 28.3745 47.3256 31.53C47.3256 32.8223 46.5759 33.5845 45.0041 33.5845C43.7032 33.5845 42.5566 32.9885 41.4289 32.0851L40.1689 33.9672C41.3427 34.9835 42.7975 35.6231 44.3426 35.8021V38.1923H46.2736V35.7269C48.655 35.3065 50.0063 33.6284 50.0063 31.348V31.348ZM33.2295 37.6528C30.9482 39.9183 27.9847 41.3778 24.792 41.8083C21.5992 42.2388 18.3527 41.6165 15.5486 40.0367L6.31594 49.2303C5.82091 49.7231 5.14956 50 4.44955 50C3.74955 50 3.07821 49.7231 2.58319 49.2303L0.771944 47.4298C0.27759 46.936 0 46.2671 0 45.5698C0 44.8724 0.27759 44.2036 0.771944 43.7097L10.0046 34.5161C8.65157 32.1394 7.99225 29.4336 8.10094 26.7037C8.20963 23.9738 9.082 21.3285 10.6197 19.0659C12.1574 16.8033 14.2993 15.0135 16.8038 13.8982C19.3084 12.7829 22.0761 12.3865 24.7948 12.7536C27.5135 13.1208 30.0751 14.237 32.1909 15.9763C34.3066 17.7156 35.8924 20.0089 36.7693 22.5976C37.6462 25.1863 37.7795 27.9674 37.154 30.6275C36.5286 33.2876 35.1693 35.7208 33.2295 37.6528V37.6528ZM29.7645 20.3602C28.3899 18.9918 26.6387 18.0601 24.7323 17.6827C22.826 17.3053 20.85 17.4993 19.0544 18.2401C17.2587 18.9809 15.724 20.2352 14.6442 21.8446C13.5644 23.4539 12.9881 25.3459 12.9881 27.2813C12.9881 29.2168 13.5644 31.1088 14.6442 32.7181C15.724 34.3274 17.2587 35.5817 19.0544 36.3225C20.85 37.0633 22.826 37.2573 24.7323 36.8799C26.6387 36.5026 28.3899 35.5708 29.7645 34.2024C31.6043 32.365 32.6375 29.8761 32.6375 27.2813C32.6375 24.6866 31.6043 22.1977 29.7645 20.3602V20.3602ZM54.8069 14.5385V46.2755C54.806 47.2627 54.4119 48.2093 53.7108 48.9073C53.0098 49.6054 52.0592 49.9979 51.0678 49.9988H24.0031C23.0117 49.9979 22.0612 49.6054 21.3601 48.9073C20.6591 48.2093 20.2649 47.2627 20.2641 46.2755V42.4613C20.8532 42.5583 21.4474 42.6211 22.0438 42.6495V46.2912C22.0447 46.8084 22.2514 47.3042 22.6186 47.6699C22.9859 48.0356 23.4837 48.2414 24.0031 48.2422H51.0678C51.5872 48.2414 52.0851 48.0356 52.4523 47.6699C52.8196 47.3042 53.0263 46.8084 53.0271 46.2912V16.3108H47.8643C46.8729 16.3099 45.9223 15.9174 45.2213 15.2193C44.5203 14.5213 44.1261 13.5747 44.1253 12.5875V7.44649H24.0031C23.4837 7.44732 22.9859 7.65313 22.6186 8.01884C22.2514 8.38455 22.0447 8.88033 22.0438 9.39752V11.9539C21.4474 11.9821 20.8532 12.045 20.2641 12.1421V9.39752C20.2649 8.41002 20.659 7.46315 21.3599 6.76459C22.0609 6.06603 23.0114 5.67279 24.0031 5.67113H45.905L54.8069 14.5385ZM53.0271 14.5385L45.905 7.44649V12.5875C45.9058 13.1047 46.1125 13.6005 46.4798 13.9662C46.847 14.3319 47.3449 14.5377 47.8643 14.5385H53.0271ZM24.5796 20.4982C24.5796 20.6867 24.6169 20.8734 24.6895 21.0475C24.762 21.2217 24.8683 21.3798 25.0023 21.513C25.1363 21.6461 25.2954 21.7516 25.4704 21.8235C25.6454 21.8953 25.833 21.9321 26.0223 21.9317H30.1645C29.888 21.5582 29.5837 21.2059 29.2542 20.8778C28.5001 20.1265 27.6194 19.5129 26.6523 19.0648H26.0223C25.8324 19.0643 25.6444 19.1013 25.469 19.1736C25.2935 19.2458 25.1342 19.3519 25.0001 19.4857C24.866 19.6195 24.7598 19.7784 24.6876 19.9533C24.6155 20.1281 24.5787 20.3155 24.5796 20.5045V20.4982ZM24.5796 25.2785C24.5796 25.6595 24.7316 26.025 25.0021 26.2944C25.2727 26.5638 25.6397 26.7151 26.0223 26.7151H31.897C31.8382 25.7291 31.6169 24.7595 31.2418 23.8451H26.0223C25.6418 23.8451 25.2768 23.9947 25.0066 24.2614C24.7364 24.5281 24.5829 24.8903 24.5796 25.2691V25.2785ZM24.5796 30.062C24.5796 30.2505 24.6169 30.4372 24.6895 30.6113C24.762 30.7854 24.8683 30.9436 25.0023 31.0767C25.1363 31.2099 25.2954 31.3154 25.4704 31.3872C25.6454 31.4591 25.833 31.4959 26.0223 31.4955H30.8859C31.3612 30.5998 31.6807 29.6305 31.8309 28.6285H26.0223C25.6416 28.6277 25.276 28.7771 25.0056 29.0439C24.7353 29.3108 24.5821 29.6735 24.5796 30.0526V30.062ZM24.5796 34.8423C24.5785 35.0772 24.6354 35.3087 24.7452 35.5165C24.8551 35.7244 25.0145 35.9022 25.2096 36.0342C26.7441 35.6247 28.1427 34.8186 29.2636 33.6974V33.6974C29.3613 33.6002 29.4558 33.4998 29.5471 33.3994H26.0223C25.6402 33.3994 25.2737 33.5504 25.0032 33.8191C24.7328 34.0878 24.5804 34.4524 24.5796 34.8329V34.8423ZM41.0635 21.2165C41.5602 20.5851 42.2108 20.0906 42.9535 19.7799H36.3007C36.5621 20.2461 36.7986 20.7256 37.0094 21.2165H41.0635ZM40.3736 25.9969C40.1937 25.5392 40.0925 25.0546 40.0744 24.5634H38.0143C38.0993 25.0339 38.1592 25.5044 38.2001 25.9969H40.3736ZM46.3586 30.7803C45.9995 30.269 45.2624 29.8581 44.2576 29.3437H38.1214C38.0584 29.8299 37.9702 30.3067 37.8631 30.7803H46.3586ZM39.6995 34.5161L39.2711 34.1271H36.6598C36.4137 34.6191 36.1414 35.0976 35.8439 35.5606H41.1989C40.6568 35.2731 40.1531 34.9191 39.6995 34.5067V34.5161ZM19.3726 18.8829V35.6798C20.5038 36.1358 21.7151 36.3619 22.9353 36.3448V18.2179H22.8124C21.6335 18.2164 20.4654 18.4422 19.3726 18.8829V18.8829Z" fill="#E0E0E0"/>
</svg>
