<svg width="60" height="60" viewBox="0 0 60 60" fill="none" xmlns="http://www.w3.org/2000/svg">
<path d="M54 0H6C4.4087 0 2.88252 0.632136 1.7573 1.75735C0.632082 2.88257 0 4.4087 0 6V54C0 55.5913 0.632082 57.1174 1.7573 58.2426C2.88252 59.3679 4.4087 60 6 60H54C55.5913 60 57.1174 59.3679 58.2426 58.2426C59.3678 57.1174 60 55.5913 60 54V6C60 4.4087 59.3678 2.88257 58.2426 1.75735C57.1174 0.632136 55.5913 0 54 0V0ZM5.172 5.175H10.956L9.15601 6.975L12.897 10.716L10.719 12.894L6.978 9.15601L5.178 10.956L5.172 5.175ZM10.956 54.825H5.172V49.044L6.972 50.844L10.716 47.1L12.894 49.278L9.153 53.019L10.956 54.825ZM14.82 43.752C12.9441 43.7515 11.1198 43.1375 9.62534 42.0037C8.13089 40.8699 7.04831 39.2784 6.54258 37.472C6.03685 35.6656 6.13577 33.7433 6.82427 31.9983C7.51276 30.2534 8.75306 28.7814 10.356 27.807C10.356 27.702 10.356 27.594 10.356 27.492C10.356 25.2974 10.9982 23.1508 12.2035 21.3168C13.4087 19.4828 15.1244 18.0416 17.1388 17.1709C19.1533 16.3001 21.3785 16.038 23.5402 16.4167C25.7019 16.7953 27.7055 17.7984 29.304 19.302C30.6168 18.5755 32.0935 18.1965 33.594 18.201C35.2926 18.2113 36.9533 18.7037 38.3829 19.6209C39.8126 20.5381 40.9525 21.8424 41.67 23.382C42.938 23.4298 44.1608 23.8657 45.1732 24.6308C46.1856 25.3958 46.9388 26.4532 47.331 27.66C49.2956 28.0803 51.0352 29.2126 52.2149 30.8388C53.3945 32.4651 53.9307 34.4703 53.7203 36.4683C53.5098 38.4663 52.5676 40.3157 51.075 41.6605C49.5824 43.0053 47.645 43.7503 45.636 43.752H14.82ZM54.825 54.825H49.044L50.844 53.025L47.106 49.284L49.2839 47.106L53.022 50.847L54.822 49.047L54.825 54.825ZM53.025 9.15601L49.2839 12.9L47.106 10.722L50.844 6.98101L49.044 5.18101H54.825V10.962L53.025 9.15601Z" fill="#E0E0E0"/>
<path d="M46.1925 30.5459L44.884 30.47L44.7349 29.2661C44.6461 28.5555 44.2775 27.8999 43.6996 27.4243C43.1216 26.9486 42.3746 26.6861 41.6007 26.6867C41.419 26.6871 41.2377 26.7032 41.0591 26.7345L39.6898 26.9539L39.2911 25.7218C38.9207 24.6023 38.1724 23.6217 37.1556 22.9237C36.1388 22.2258 34.907 21.847 33.6405 21.8429C32.3256 21.8395 31.0477 22.2458 30.0133 22.9962L28.8144 23.8625L27.8377 22.7712C26.7523 21.5587 25.2886 20.6855 23.6464 20.2705C22.0043 19.8556 20.2636 19.9192 18.662 20.4527C17.0604 20.9862 15.6759 21.9636 14.6975 23.2515C13.7191 24.5394 13.1944 26.075 13.1951 27.6487C13.1955 27.9675 13.2179 28.286 13.2621 28.6022L13.4051 29.6711L12.3401 30.1071C11.1654 30.5841 10.204 31.4203 9.61756 32.4753C9.03116 33.5302 8.85551 34.7397 9.12004 35.9003C9.38457 37.0609 10.0731 38.1019 11.0701 38.8485C12.0672 39.5951 13.3118 40.0017 14.5949 39.9999H45.8578C47.1909 40.0057 48.4738 39.5305 49.4336 38.6753C50.3935 37.8201 50.9545 36.6524 50.9974 35.4207C51.0402 34.189 50.5614 32.9905 49.6629 32.0801C48.7644 31.1697 47.5172 30.6193 46.1864 30.5459H46.1925Z" fill="#E0E0E0"/>
</svg>
