<svg width="57" height="57" viewBox="0 0 57 57" fill="none" xmlns="http://www.w3.org/2000/svg">
<path d="M51.3 0H5.7C4.18827 0 2.73843 0.60053 1.66947 1.66949C0.600512 2.73844 0 4.18827 0 5.7V51.3C0 52.8117 0.600512 54.2616 1.66947 55.3305C2.73843 56.3995 4.18827 57 5.7 57H51.3C52.8117 57 54.2615 56.3995 55.3305 55.3305C56.3995 54.2616 57 52.8117 57 51.3V5.7C57 4.18827 56.3995 2.73844 55.3305 1.66949C54.2615 0.60053 52.8117 0 51.3 0V0ZM52.0467 33.6557C51.6904 36.9503 48.7834 39.3842 45.4689 39.3842H6.13888C5.81461 39.3842 5.50364 39.2553 5.27434 39.026C5.04505 38.7967 4.91625 38.4858 4.91625 38.1615C4.91625 37.8372 5.04505 37.5262 5.27434 37.297C5.50364 37.0677 5.81461 36.9388 6.13888 36.9388H45.6456C46.1863 36.9395 46.7215 36.8302 47.2186 36.6177C47.7158 36.4052 48.1646 36.0938 48.5377 35.7025C48.9109 35.3113 49.2006 34.8482 49.3894 34.3415C49.5781 33.8349 49.6619 33.2951 49.6356 32.755C49.5416 30.6945 47.8144 29.0814 45.7567 28.9503L44.8846 28.8962L44.7878 28.0696C44.7311 27.5496 44.5244 27.0572 44.193 26.6524C43.8616 26.2476 43.4196 25.9479 42.921 25.7896C42.5905 25.6832 42.2381 25.6635 41.8979 25.7326L40.8291 25.9208L40.5184 24.8805C40.3263 24.2514 40.0019 23.6706 39.567 23.1771C39.1322 22.6835 38.5969 22.2886 37.997 22.0188C37.3971 21.7489 36.7465 21.6103 36.0887 21.6124C35.4309 21.6144 34.7811 21.757 34.1829 22.0305C33.8475 22.1876 33.5319 22.3837 33.2424 22.6147L32.3446 23.3158L31.5865 22.401C30.7969 21.4481 29.7504 20.7418 28.5713 20.366C27.3922 19.9901 26.1301 19.9605 24.9346 20.2806C23.5513 20.6395 22.3287 21.4527 21.463 22.5897C20.5973 23.7268 20.1387 25.1217 20.1609 26.5506C20.1645 26.805 20.1816 27.059 20.2122 27.3116L20.3262 28.215L19.6308 28.52C18.9333 28.8165 18.3214 29.2835 17.8513 29.8781C17.3812 30.4726 17.068 31.1757 16.9404 31.9229C16.8089 32.7988 16.9492 33.694 17.3422 34.4879H14.7288C14.4356 33.5085 14.3722 32.4747 14.5436 31.4668H6.13888C5.97354 31.4748 5.80833 31.4492 5.65321 31.3914C5.49808 31.3336 5.3563 31.245 5.23646 31.1308C5.11662 31.0166 5.0212 30.8793 4.95601 30.7271C4.89083 30.575 4.85725 30.4112 4.85725 30.2456C4.85725 30.0801 4.89083 29.9163 4.95601 29.7641C5.0212 29.612 5.11662 29.4746 5.23646 29.3605C5.3563 29.2463 5.49808 29.1576 5.65321 29.0998C5.80833 29.0421 5.97354 29.0164 6.13888 29.0244H15.4527C16.0188 28.0925 16.8008 27.3105 17.7327 26.7444C17.7327 26.6618 17.7327 26.5763 17.7327 26.4936C17.7327 26.411 17.7327 26.3226 17.7327 26.2371H10.052C9.72769 26.2371 9.41668 26.1083 9.18739 25.879C8.9581 25.6497 8.82929 25.3387 8.82929 25.0145C8.82929 24.6902 8.9581 24.3792 9.18739 24.1499C9.41668 23.9206 9.72769 23.7918 10.052 23.7918H18.1431C18.4661 22.7869 18.966 21.8478 19.6194 21.0187H13.8168C13.4925 21.0187 13.1816 20.8899 12.9523 20.6606C12.723 20.4313 12.5941 20.1204 12.5941 19.7961V19.7961C12.5941 19.4718 12.723 19.1608 12.9523 18.9316C13.1816 18.7023 13.4925 18.5734 13.8168 18.5734H22.5834C24.2145 17.7366 26.0649 17.4259 27.8798 17.6842C29.6948 17.9424 31.3851 18.7569 32.718 20.0155C33.7565 19.4399 34.925 19.1397 36.1123 19.1434C37.4575 19.1502 38.7731 19.539 39.9059 20.2646C41.0386 20.9902 41.942 22.0226 42.5106 23.2417C43.5144 23.2802 44.4823 23.6257 45.2835 24.2317C46.0847 24.8377 46.6806 25.6749 46.9908 26.6304C48.5546 26.966 49.9379 27.8708 50.8722 29.169C51.8065 30.4672 52.2251 32.0662 52.0467 33.6557Z" fill="#E0E0E0"/>
</svg>
