<svg width="104" height="109" viewBox="0 0 104 109" fill="none" xmlns="http://www.w3.org/2000/svg">
<path d="M51.2394 65H50.7606C49.4975 65.0014 48.2866 65.4629 47.394 66.2831C46.5014 67.1034 46 68.2153 46 69.3747V75H56V69.3747C56 68.2153 55.4986 67.1034 54.606 66.2831C53.7134 65.4629 52.5025 65.0014 51.2394 65Z" fill="#E0E0E0"/>
<path d="M52.8222 81.0855C52.8229 80.7027 52.7344 80.3274 52.567 80.0029C52.3996 79.6784 52.1601 79.4178 51.876 79.2513C51.5919 79.0847 51.2749 79.0189 50.9613 79.0614C50.6478 79.1039 50.3505 79.253 50.1037 79.4915C49.857 79.7301 49.6708 80.0484 49.5665 80.4097C49.4623 80.771 49.4442 81.1608 49.5145 81.534C49.5848 81.9072 49.7405 82.2488 49.9637 82.5193C50.1869 82.7899 50.4686 82.9784 50.7762 83.0632L49.4424 85.8685H52.8522L51.5184 83.0632C51.8885 82.9623 52.2193 82.7115 52.4563 82.352C52.6933 81.9926 52.8223 81.5459 52.8222 81.0855Z" fill="#E0E0E0"/>
<path d="M79.844 51.9176C81.2375 52.0144 51.2989 43.4285 51.1477 43.2456C50.9964 43.4285 21.0578 52.0144 22.4513 51.9176C23.9745 90.156 13.3395 82.533 51.1477 108.032C88.9558 82.533 78.3209 90.156 79.844 51.9176ZM61.9068 90.511H40.3886V75.3458H42.0845V69.5627C42.0874 67.2294 43.0193 64.9925 44.6758 63.3426C46.3323 61.6927 48.5782 60.7645 50.9209 60.7617H51.3745C53.7171 60.7645 55.9631 61.6927 57.6196 63.3426C59.2761 64.9925 60.208 67.2294 60.2108 69.5627V75.3458H61.9068V90.511Z" fill="#E0E0E0"/>
<path d="M94.7391 0.623047H9.25555C6.80169 0.625898 4.44911 1.60124 2.71397 3.33512C0.978826 5.06899 0.00285333 7.41982 0 9.87189V81.7295C0.00142637 84.1825 0.976829 86.5347 2.71212 88.2697C4.44742 90.0047 6.80075 90.9808 9.25555 90.9837H23.271L23.2332 90.9352C21.2614 88.4143 20.0247 85.3983 19.6594 82.2196H9.23396C9.1048 82.2182 8.98144 82.166 8.8906 82.0742C8.79977 81.9824 8.74886 81.8586 8.74887 81.7295V19.5894H95.2026V81.7295C95.2026 81.8586 95.1517 81.9824 95.0608 82.0742C94.97 82.166 94.8466 82.2182 94.7175 82.2196H84.3407C83.9753 85.3983 82.7386 88.4143 80.7668 90.9352L80.729 90.9837H94.7445C97.1992 90.9808 99.5526 90.0047 101.288 88.2697C103.023 86.5347 103.999 84.1825 104 81.7295V9.87189C103.997 7.41889 103.02 5.06724 101.284 3.33321C99.5478 1.59918 97.1939 0.624472 94.7391 0.623047V0.623047ZM11.0991 14.8114C10.3762 14.8114 9.6697 14.5972 9.06867 14.1959C8.46764 13.7946 7.99923 13.2242 7.72261 12.5569C7.44598 11.8896 7.37352 11.1552 7.51454 10.4468C7.65556 9.73834 8.00374 9.0876 8.51487 8.57684C9.026 8.06608 9.67721 7.71825 10.3862 7.57733C11.0951 7.43641 11.83 7.50873 12.4978 7.78515C13.1656 8.06157 13.7364 8.52969 14.138 9.13028C14.5396 9.73087 14.7539 10.437 14.7539 11.1593C14.7546 11.6391 14.6605 12.1143 14.4771 12.5577C14.2937 13.0012 14.0245 13.404 13.685 13.7433C13.3455 14.0826 12.9423 14.3516 12.4986 14.5349C12.0548 14.7182 11.5792 14.8121 11.0991 14.8114V14.8114ZM41.1946 11.1593C41.1953 11.6386 41.1014 12.1134 40.9184 12.5565C40.7353 12.9996 40.4666 13.4022 40.1277 13.7414C39.7887 14.0806 39.3861 14.3497 38.943 14.5333C38.4998 14.7169 38.0249 14.8114 37.5452 14.8114H20.6889C20.2089 14.8114 19.7337 14.717 19.2903 14.5334C18.8469 14.3499 18.4439 14.0809 18.1046 13.7417C17.7652 13.4026 17.496 13 17.3123 12.5569C17.1286 12.1138 17.0341 11.6389 17.0341 11.1593C17.0355 10.1911 17.421 9.26301 18.1061 8.57841C18.7912 7.89381 19.72 7.50858 20.6889 7.50715H37.5452C38.5136 7.50858 39.4419 7.89399 40.1261 8.57874C40.8103 9.2635 41.1946 10.1916 41.1946 11.1593V11.1593Z" fill="#E0E0E0"/>
</svg>
