<svg  viewBox="0 0 70 60" fill="none" xmlns="http://www.w3.org/2000/svg">
<path d="M38.4778 33.1657L39.4541 34.1419L40.9308 32.6653V29.5789L38.4778 27.126V33.1657Z" fill="#E0E0E0"/>
<path d="M48.8946 36.3853L47.8834 35.374L46.5151 36.7457V40.049L48.8946 42.4285V36.3853Z" fill="#E0E0E0"/>
<path d="M41.3503 28.8442H45.6299L48.1319 26.3423H38.8484L41.3503 28.8442Z" fill="#E0E0E0"/>
<path d="M48.1948 42.8864L45.7734 40.4614H41.3188L38.8938 42.8864H48.1948Z" fill="#E0E0E0"/>
<path d="M47.3062 34.7967L45.819 33.313H41.438L40.0312 34.7197L41.305 35.9934H46.1095L47.3062 34.7967Z" fill="#E0E0E0"/>
<path d="M24.7606 35.1533H1.12675C0.978488 35.1533 0.83166 35.1826 0.694728 35.2394C0.557795 35.2963 0.433503 35.3796 0.328828 35.4846C0.224153 35.5896 0.141171 35.7142 0.0847526 35.8513C0.0283341 35.9884 -0.000455006 36.1353 5.43696e-06 36.2836V39.9648C5.43696e-06 40.2636 0.118716 40.5502 0.330024 40.7615C0.541332 40.9728 0.827916 41.0915 1.12675 41.0915H25.8734C25.1857 39.1848 24.8099 37.1797 24.7606 35.1533Z" fill="#E0E0E0"/>
<path d="M14.1545 44.9229H10.5468C9.92253 44.9229 9.4165 45.4289 9.4165 46.0531V49.7308C9.4165 50.355 9.92253 50.8611 10.5468 50.8611H14.1545C14.7787 50.8611 15.2847 50.355 15.2847 49.7308V46.0531C15.2847 45.4289 14.7787 44.9229 14.1545 44.9229Z" fill="#E0E0E0"/>
<path d="M69.7293 18.0771L66.9614 14.7773C66.8664 14.6637 66.7498 14.5699 66.6185 14.5014C66.4872 14.4329 66.3436 14.3909 66.196 14.3779C66.0485 14.3649 65.8998 14.3811 65.7585 14.4256C65.6173 14.4701 65.4862 14.5421 65.3727 14.6373L62.157 17.3352C58.2339 13.1532 53.0058 10.4287 47.3306 9.60891V7.93978H49.1048C49.4036 7.93978 49.6902 7.82106 49.9015 7.60976C50.1128 7.39845 50.2315 7.11185 50.2315 6.81302V1.13026C50.2315 0.831101 50.1129 0.544146 49.9017 0.332283C49.6905 0.120419 49.4039 0.000926182 49.1048 0H38.3376C38.0385 0.000926182 37.7518 0.120419 37.5406 0.332283C37.3294 0.544146 37.2109 0.831101 37.2109 1.13026V6.80952C37.2109 7.10836 37.3296 7.39495 37.5409 7.60626C37.7522 7.81757 38.0388 7.93628 38.3376 7.93628H40.1118V9.60891C34.4543 10.4276 29.2421 13.1416 25.3275 17.3072L22.0136 14.5079C21.7835 14.3162 21.487 14.2233 21.1887 14.2496C20.8904 14.2758 20.6146 14.419 20.4215 14.6478L17.6536 17.9476C17.461 18.1773 17.3676 18.4741 17.3939 18.7727C17.4201 19.0712 17.5639 19.3472 17.7936 19.5398L21.4643 22.6191C20.9751 23.5161 20.5426 24.4428 20.1695 25.394H10.9945C10.6947 25.394 10.4073 25.5131 10.1953 25.725C9.98334 25.937 9.86426 26.2245 9.86426 26.5242V30.2054C9.86426 30.3537 9.89353 30.5005 9.95037 30.6374C10.0072 30.7744 10.0906 30.8987 10.1956 31.0034C10.3006 31.1081 10.4252 31.191 10.5623 31.2474C10.6994 31.3039 10.8462 31.3327 10.9945 31.3322H25.058C25.8351 26.9855 28.1054 23.0465 31.4768 20.1951C34.8483 17.3437 39.1094 15.7588 43.5248 15.7139C47.9402 15.669 52.2327 17.167 55.6614 19.9493C59.0902 22.7316 61.44 26.6236 62.3054 30.9536C63.1707 35.2836 62.4971 39.7798 60.4011 43.6662C58.3051 47.5526 54.9181 50.5853 50.8246 52.2409C46.7311 53.8964 42.1881 54.071 37.9797 52.7344C33.7712 51.3978 30.1615 48.6339 27.7734 44.9197H18.4619C18.3139 44.9197 18.1674 44.9489 18.0307 45.0055C17.894 45.0621 17.7698 45.1451 17.6652 45.2498C17.5606 45.3544 17.4776 45.4786 17.4209 45.6153C17.3643 45.752 17.3352 45.8985 17.3352 46.0465V49.7277C17.3347 49.876 17.3635 50.0229 17.4199 50.16C17.4763 50.2971 17.5592 50.4217 17.6639 50.5267C17.7686 50.6317 17.893 50.715 18.0299 50.7719C18.1668 50.8287 18.3137 50.858 18.4619 50.858H24.2916C28.3074 55.6741 33.9681 58.828 40.1766 59.7085C46.3851 60.589 52.6995 59.1335 57.896 55.6239C63.0926 52.1144 66.8014 46.8007 68.3036 40.7127C69.8058 34.6246 68.9946 28.1956 66.0271 22.6716L69.6103 19.6622C69.8356 19.4674 69.9746 19.1913 69.9969 18.8942C70.0192 18.5972 69.923 18.3034 69.7293 18.0771V18.0771Z" fill="#E0E0E0"/>
<path d="M29.1906 39.3702L28.2283 42.9674L29.397 42.292C30.824 44.7239 32.8647 46.7383 35.3149 48.1335C37.7651 49.5287 40.5388 50.2558 43.3584 50.2421C46.1779 50.2284 48.9444 49.4742 51.3809 48.0552C53.8174 46.6362 55.8384 44.602 57.2416 42.1564C58.6448 39.7108 59.381 36.9394 59.3765 34.1199C59.3719 31.3003 58.6268 28.5313 57.2157 26.0902C55.8047 23.6491 53.7771 21.6215 51.3361 20.2103C48.895 18.7992 46.1261 18.054 43.3065 18.0493V20.8067H43.359C45.7034 20.8067 48.0066 21.423 50.0376 22.594C52.0686 23.765 53.756 25.4493 54.9306 27.4782C56.1053 29.5071 56.7257 31.8092 56.7299 34.1536C56.7341 36.498 56.1217 38.8023 54.9543 40.8353C53.7869 42.8684 52.1055 44.5587 50.0786 45.7369C48.0518 46.915 45.7508 47.5396 43.4064 47.5478C41.062 47.5561 38.7567 46.9478 36.7216 45.7839C34.6865 44.6201 32.9932 42.9416 31.8115 40.9168L32.7913 40.35L29.1906 39.3702Z" fill="#E0E0E0"/>
</svg>
