<svg  viewBox="0 0 39 39" fill="none" xmlns="http://www.w3.org/2000/svg">
<rect x="1" y="1" width="37" height="37" rx="18.5" fill="black"/>
<path fill-rule="evenodd" clip-rule="evenodd" d="M19.0733 38.9881C18.8316 38.9881 18.5899 38.9761 18.2736 38.9582C18.0051 38.9404 17.6619 38.9105 17.3187 38.8658C16.8234 38.8211 16.4057 38.7585 16.0058 38.663C15.7761 38.6451 15.597 38.6034 15.421 38.5676C14.8242 38.4453 14.3617 38.326 13.9021 38.168C13.7828 38.1441 13.6754 38.1084 13.565 38.0785C12.9204 37.8757 12.4132 37.6849 11.9178 37.4642C11.8641 37.4463 11.8194 37.4344 11.7836 37.4105C9.94844 36.6143 8.36098 35.6183 6.93765 34.4255C6.45723 34.0169 5.9798 33.5815 5.53519 33.1163C5.50237 33.0924 5.4785 33.0596 5.44568 33.0239C2.07384 29.5258 0 24.7515 0 19.497C0 14.2485 2.07384 9.48309 5.44568 5.98806C5.4785 5.95228 5.50237 5.92246 5.53519 5.89264C5.56503 5.86282 5.60681 5.82406 5.64859 5.7853C5.8515 5.57357 6.0186 5.41548 6.20062 5.2783C6.49901 4.96816 6.75861 4.73556 7.02716 4.52085C7.24797 4.33298 7.45089 4.17194 7.67468 4.03178C7.98203 3.76935 8.25057 3.57257 8.54001 3.38768C8.75486 3.23559 8.94285 3.10735 9.15173 2.99999C9.51577 2.75248 9.83206 2.56164 10.1633 2.39166C10.3155 2.30219 10.4557 2.23357 10.6079 2.16796C11.0674 1.91448 11.4792 1.72365 11.9059 1.54771C11.9238 1.54174 11.9357 1.53579 11.9536 1.52982C14.3408 0.530817 16.8622 0 19.503 0C23.4597 0 27.1478 1.18688 30.3496 3.3161C30.3675 3.32207 30.3794 3.334 30.4003 3.34891C30.8091 3.61432 31.206 3.90954 31.6834 4.30617C31.764 4.35686 31.8416 4.42246 31.9221 4.49105C32.2593 4.75944 32.5845 5.04868 32.9635 5.4453C33.0858 5.53178 33.1903 5.63317 33.3186 5.77333C33.3723 5.8121 33.4171 5.85387 33.4588 5.89264C33.4857 5.92246 33.5155 5.95825 33.5513 6.00299C36.9142 9.49503 39 14.2545 39 19.497C39 24.7515 36.9142 29.5258 33.5394 33.0239C33.5036 33.0596 33.4797 33.0924 33.4529 33.1163C32.2921 34.3091 30.9792 35.3499 29.4932 36.2177C29.341 36.334 29.1679 36.4354 28.9919 36.5308C28.7054 36.6948 28.419 36.8469 28.0788 36.9871C27.8282 37.1332 27.5745 37.2525 27.2821 37.3748C27.0195 37.497 26.7569 37.6044 26.4317 37.7058C26.1214 37.8459 25.7961 37.9592 25.4917 38.0547C24.7547 38.2962 23.9938 38.493 24.5697 38.332C23.403 38.6034 23.579 38.5676 23.6238 38.5557C23.6775 38.5497 23.7193 38.5348 22.6868 38.7376C23.1553 38.663 22.5257 38.7704 21.7022 38.8658C21.8603 38.8539 22.0184 38.836 20.6279 38.9582C21.4366 38.9165 20.6727 38.9761 19.9118 38.9881C19.7536 39 19.6253 39 19.497 39C19.3627 39 19.2374 39 19.0733 38.9881ZM19.7059 35.8062C20.5623 35.6541 21.8543 34.5 22.9972 31.6044C21.8722 31.5119 20.7025 31.4582 19.503 31.4582C18.2915 31.4582 17.1158 31.5119 15.9879 31.6044C17.1337 34.5119 18.4198 35.6481 19.2702 35.8062C19.318 35.8211 19.3627 35.8211 19.4165 35.8121H19.5865C19.6253 35.8211 19.6671 35.8211 19.7059 35.8062ZM25.447 34.658C26.0288 34.4672 26.5839 34.2167 27.0792 33.9364C27.3567 33.8201 27.6193 33.674 27.6312 33.6113C28.1713 33.331 28.6786 32.994 29.1679 32.6392L29.15 32.6332L28.5324 32.4692C27.8043 32.2962 27.0344 32.1382 26.2347 32.007C26.1393 32.2604 26.0527 32.5079 25.9543 32.7495C25.6559 33.501 25.3306 34.2107 24.9695 34.8489C25.25 34.7863 25.5096 34.6879 25.447 34.658ZM13.0338 32.7495C12.9324 32.5079 12.8429 32.2604 12.7504 32.007C11.9477 32.1382 11.1778 32.2962 10.4557 32.4692L9.82609 32.6332L9.81416 32.6392C10.2707 32.9762 10.7481 33.2923 11.2614 33.5606C11.339 33.6561 11.6314 33.8201 11.9417 33.9543C12.3535 34.1869 12.8488 34.4255 13.371 34.5954C13.553 34.7177 13.7619 34.7982 13.9917 34.8429C13.6425 34.2018 13.3203 33.495 13.0338 32.7495ZM11.8641 28.9354C11.3121 26.5736 10.9689 23.9075 10.8824 21.0775H3.24354C3.58072 24.5308 4.98317 27.665 7.11967 30.1491C8.55196 29.6511 10.1424 29.2455 11.8641 28.9354ZM35.7475 21.0775H28.1087C28.0191 23.9016 27.67 26.5736 27.1239 28.9354C28.8457 29.2396 30.4361 29.6511 31.8624 30.1491C33.9989 27.665 35.4103 24.5308 35.7475 21.0775ZM19.503 28.2883C21.0337 28.2883 22.5257 28.3628 23.961 28.503C24.4862 26.332 24.8353 23.8151 24.9338 21.0775H14.0543C14.1528 23.8151 14.5019 26.332 15.0211 28.503C16.4624 28.3628 17.9603 28.2883 19.503 28.2883ZM11.8641 10.0765C10.1424 9.76938 8.54599 9.3668 7.11967 8.86879C4.98317 11.3439 3.58072 14.4751 3.2495 17.9075H10.8824C10.9749 15.0924 11.3181 12.4354 11.8641 10.0765ZM23.955 10.506C22.5197 10.6461 21.0278 10.7177 19.503 10.7177C17.9663 10.7177 16.4683 10.6461 15.0271 10.506C14.5019 12.671 14.1588 15.1849 14.0543 17.9075H24.9338C24.8293 15.1849 24.4802 12.671 23.955 10.506ZM31.8684 8.86879C30.4361 9.3668 28.8367 9.76938 27.118 10.0825C27.67 12.4354 28.0132 15.0924 28.1087 17.9075H35.7415C35.4103 14.4751 33.9989 11.3499 31.8684 8.86879ZM22.9852 7.41054C21.7439 4.27038 20.3415 3.19384 19.497 3.19384C18.6227 3.19384 17.2262 4.3002 15.9998 7.41054C17.1218 7.5 18.2975 7.54473 19.503 7.54473C20.6966 7.54473 21.8663 7.5 22.9852 7.41054ZM28.5324 6.5457L29.1799 6.38171C28.6845 6.01491 28.1653 5.67792 27.6432 5.40953C27.4044 5.21868 27.1359 5.07254 27.0673 5.06657C26.5063 4.76538 25.9244 4.49702 25.3366 4.3002C25.1217 4.17197 24.889 4.08546 24.9516 4.14809C25.3187 4.80713 25.6499 5.52583 25.9543 6.27733C26.0468 6.52186 26.1393 6.76639 26.2288 7.01689C27.0344 6.8827 27.8043 6.72463 28.5324 6.5457ZM13.0338 6.27733C13.3262 5.52583 13.6575 4.80713 14.0185 4.15405C14.0245 4.11826 13.7559 4.21073 13.5112 4.35686C12.9891 4.52087 12.4549 4.77135 11.9477 5.05465C11.8194 5.08447 11.521 5.2515 11.2554 5.45726C10.7601 5.70776 10.2707 6.0328 9.80222 6.38171L10.4557 6.5457C11.1778 6.72463 11.9536 6.8827 12.7563 7.01689C12.8429 6.76639 12.9383 6.52186 13.0338 6.27733Z" fill="white"/>
</svg>
