<svg width="88" height="56" viewBox="0 0 88 56" fill="none" xmlns="http://www.w3.org/2000/svg">
<path d="M43.6458 27.4723C51.2321 27.4723 57.3819 21.3224 57.3819 13.7361C57.3819 6.14988 51.2321 0 43.6458 0C36.0595 0 29.9097 6.14988 29.9097 13.7361C29.9097 21.3224 36.0595 27.4723 43.6458 27.4723Z" fill="#E0E0E0"/>
<g opacity="0.5">
<path opacity="0.5" d="M14.9506 29.3024C20.5176 29.3024 25.0305 24.7895 25.0305 19.2225C25.0305 13.6555 20.5176 9.14258 14.9506 9.14258C9.38361 9.14258 4.87061 13.6555 4.87061 19.2225C4.87061 24.7895 9.38361 29.3024 14.9506 29.3024Z" fill="#E0E0E0"/>
</g>
<path opacity="0.25" d="M72.3412 29.3024C77.9082 29.3024 82.4211 24.7895 82.4211 19.2225C82.4211 13.6555 77.9082 9.14258 72.3412 9.14258C66.7742 9.14258 62.2612 13.6555 62.2612 19.2225C62.2612 24.7895 66.7742 29.3024 72.3412 29.3024Z" fill="#E0E0E0"/>
<path d="M53.4181 29.4346C50.4828 31.2824 47.0837 32.2602 43.6152 32.2548C40.1468 32.2493 36.7509 31.2608 33.8214 29.4038C30.84 29.6445 28.0581 30.9974 26.0278 33.194C23.9975 35.3905 22.8673 38.2701 22.8616 41.2612V48.6881C22.8616 50.5905 23.617 52.4151 24.9618 53.7608C26.3066 55.1064 28.1307 55.863 30.0331 55.8642H56.8983C58.8015 55.8642 60.6268 55.1081 61.9726 53.7623C63.3183 52.4166 64.0744 50.5913 64.0744 48.6881V41.2612C64.0691 38.3228 62.9782 35.49 61.0113 33.3071C59.0443 31.1241 56.3401 29.7449 53.4181 29.4346V29.4346Z" fill="#E0E0E0"/>
<path opacity="0.25" d="M80.4631 30.1777C78.1658 31.9014 75.3806 32.8515 72.5088 32.891C69.6371 32.9305 66.8269 32.0575 64.483 30.3977C64.1838 30.5385 63.8758 30.6705 63.603 30.8377C66.2136 33.6845 67.6612 37.4071 67.6596 41.2696V48.6965C67.6596 48.8109 67.6289 48.9208 67.6245 49.0352H80.8239C82.7271 49.0352 84.5524 48.2792 85.8981 46.9334C87.2439 45.5877 87.9998 43.7624 87.9998 41.8592V41.2608C87.9954 38.8717 87.275 36.5388 85.9315 34.5632C84.5881 32.5876 82.6833 31.06 80.4631 30.1777V30.1777Z" fill="#E0E0E0"/>
<g opacity="0.5">
<path opacity="0.5" d="M19.2754 41.2613C19.2656 37.2186 20.8459 33.3342 23.6752 30.4466C23.4772 30.3542 23.2705 30.2794 23.0681 30.2002C20.7633 31.9195 17.9718 32.8623 15.0965 32.8923C12.2212 32.9224 9.41067 32.0382 7.07042 30.3674C4.96637 31.3073 3.17931 32.836 1.92473 34.7691C0.670142 36.7021 0.00170877 38.9568 3.37731e-05 41.2613V41.8509C-0.00285904 42.794 0.180111 43.7284 0.538621 44.6007C0.897131 45.473 1.42415 46.2661 2.0894 46.9347C2.75465 47.6032 3.54506 48.134 4.41561 48.4968C5.28617 48.8596 6.21968 49.0472 7.1628 49.0489H19.3063C19.3063 48.9345 19.2754 48.8245 19.2754 48.7101V41.2613Z" fill="#E0E0E0"/>
</g>
</svg>
