<svg width="57" height="57" viewBox="0 0 57 57" fill="none" xmlns="http://www.w3.org/2000/svg">
<path d="M9 45C9 45.3956 9.11729 45.7822 9.33705 46.1111C9.55681 46.44 9.86919 46.6964 10.2346 46.8478C10.6001 46.9991 11.0022 47.0387 11.3902 46.9616C11.7781 46.8844 12.1345 46.6939 12.4142 46.4142C12.6939 46.1345 12.8844 45.7781 12.9616 45.3902C13.0387 45.0022 12.9991 44.6001 12.8478 44.2346C12.6964 43.8692 12.4401 43.5568 12.1112 43.3371C11.7823 43.1173 11.3956 43 11 43C10.7374 43 10.4773 43.0517 10.2346 43.1522C9.99199 43.2528 9.77152 43.4001 9.58581 43.5858C9.40009 43.7715 9.25276 43.992 9.15225 44.2346C9.05174 44.4773 9 44.7374 9 45V45Z" fill="#E0E0E0"/>
<path d="M28.5284 48.4292C27.9381 48.4283 27.3601 48.2796 26.8602 48C26.3539 48.0353 25.8812 48.2395 25.5364 48.5717C25.1916 48.904 25 49.3399 25 49.7924V50.9144C25 51.2024 25.1283 51.4785 25.3568 51.682C25.5852 51.8856 25.895 52 26.2181 52H30.7788C31.1021 52 31.4123 51.8857 31.6412 51.6822C31.8702 51.4787 31.9992 51.2026 32 50.9144V49.7924C31.9982 49.3479 31.8126 48.9197 31.4787 48.5895C31.1448 48.2593 30.6861 48.0504 30.1902 48.0028C29.6923 48.2814 29.1163 48.4292 28.5284 48.4292V48.4292Z" fill="#E0E0E0"/>
<path d="M11.0256 48.4292C10.5195 48.4283 10.0238 48.2796 9.59512 48C9.16098 48.0353 8.75563 48.2395 8.45995 48.5717C8.16427 48.904 8.00003 49.3399 8 49.7924V50.9144C8 51.2024 8.11003 51.4785 8.30592 51.682C8.50181 51.8856 8.76751 52 9.04453 52H12.9555C13.2325 52 13.4982 51.8856 13.694 51.682C13.8899 51.4785 14 51.2024 14 50.9144V49.7924C13.9991 49.3482 13.8406 48.9199 13.5547 48.5897C13.2688 48.2595 12.8757 48.0505 12.4507 48.0028C12.0238 48.2814 11.5298 48.4292 11.0256 48.4292V48.4292Z" fill="#E0E0E0"/>
<path d="M26 45C26 45.3956 26.1466 45.7822 26.4213 46.1111C26.696 46.44 27.0865 46.6964 27.5433 46.8478C28.0001 46.9991 28.5028 47.0387 28.9877 46.9616C29.4727 46.8844 29.9181 46.6939 30.2678 46.4142C30.6174 46.1345 30.8555 45.7781 30.952 45.3902C31.0484 45.0022 30.9989 44.6001 30.8097 44.2346C30.6205 43.8692 30.3 43.5568 29.8889 43.3371C29.4778 43.1173 28.9945 43 28.5 43C27.837 43 27.2011 43.2107 26.7322 43.5858C26.2634 43.9609 26 44.4696 26 45V45Z" fill="#E0E0E0"/>
<path d="M47.4568 48.0028C47.0303 48.2817 46.5365 48.4296 46.0324 48.4292C45.5256 48.4283 45.0292 48.2796 44.6 48C44.165 48.0353 43.7588 48.2393 43.4623 48.5715C43.1658 48.9037 43.0007 49.3396 43 49.7924V50.9144C43.0007 51.2026 43.1115 51.4787 43.3081 51.6822C43.5047 51.8857 43.771 52 44.0487 52H47.9541C48.2315 52 48.4975 51.8856 48.6936 51.682C48.8898 51.4785 49 51.2024 49 50.9144V49.7924C48.9994 49.3495 48.8417 48.9223 48.5571 48.5923C48.2725 48.2622 47.8808 48.0524 47.4568 48.0028V48.0028Z" fill="#E0E0E0"/>
<path d="M51.3 0H5.7C4.18827 0 2.73846 0.60053 1.6695 1.66949C0.600547 2.73844 0 4.18827 0 5.7V51.3C0 52.8117 0.600547 54.2616 1.6695 55.3305C2.73846 56.3995 4.18827 57 5.7 57H51.3C52.8117 57 54.2616 56.3995 55.3305 55.3305C56.3995 54.2616 57 52.8117 57 51.3V5.7C57 4.18827 56.3995 2.73844 55.3305 1.66949C54.2616 0.60053 52.8117 0 51.3 0ZM10.3996 6.327V3.9159C10.3996 3.7171 10.4786 3.52646 10.6192 3.38589C10.7598 3.24532 10.9504 3.16635 11.1492 3.16635H26.3882C26.6149 3.16635 26.8324 3.25643 26.9928 3.41677C27.1531 3.57712 27.2432 3.79459 27.2432 4.02135V5.3067H46.589V7.1991H27.8217C27.516 7.20351 27.2207 7.31039 26.983 7.50262C26.7453 7.69485 26.579 7.96131 26.5107 8.2593V8.2593C26.1203 9.7299 24.9603 9.9693 24.2307 9.9693L10.3826 9.8667L10.3996 6.327ZM45.7682 53.8337C44.1769 53.8469 42.6394 53.2585 41.4636 52.1862C40.2879 51.1139 39.5606 49.637 39.4277 48.0513C39.2947 46.4656 39.7658 44.8881 40.7465 43.635C41.7273 42.3819 43.1453 41.5456 44.7165 41.2937V37.1327H31.0736C30.947 37.4945 30.7462 37.8258 30.4841 38.1056C30.222 38.3853 29.9045 38.6072 29.5517 38.7571V41.2937C31.113 41.5577 32.5182 42.3986 33.4888 43.6499C34.4594 44.9011 34.9245 46.4712 34.7921 48.0492C34.6596 49.6272 33.9391 51.0978 32.7735 52.1697C31.6079 53.2416 30.0821 53.8364 28.4986 53.8364C26.915 53.8364 25.3893 53.2416 24.2237 52.1697C23.0581 51.0978 22.3376 49.6272 22.2051 48.0492C22.0726 46.4712 22.5378 44.9011 23.5084 43.6499C24.4789 42.3986 25.8842 41.5577 27.4455 41.2937V38.76C27.0928 38.6105 26.7753 38.3887 26.5137 38.1089C26.252 37.8291 26.052 37.4975 25.9265 37.1355H12.2807V41.2965C13.842 41.5605 15.2472 42.4015 16.2178 43.6527C17.1884 44.9039 17.6535 46.4741 17.521 48.0521C17.3885 49.6301 16.6681 51.1007 15.5025 52.1726C14.3369 53.2444 12.8111 53.8393 11.2276 53.8393C9.64405 53.8393 8.11831 53.2444 6.95268 52.1726C5.78706 51.1007 5.06662 49.6301 4.93413 48.0521C4.80165 46.4741 5.26678 44.9039 6.23737 43.6527C7.20795 42.4015 8.61316 41.5605 10.1745 41.2965V35.0265H26.049C26.3396 34.4309 26.8356 33.9603 27.4455 33.7012V29.5631H10.3996V10.9412L24.2478 11.0437C25.7412 11.0437 26.8385 10.3341 27.3657 9.0858C27.4803 8.83921 27.6642 8.63135 27.895 8.4876C28.1258 8.34386 28.3935 8.27047 28.6653 8.2764H46.5975V29.5631H29.5517V33.7069C30.1621 33.9654 30.6582 34.4362 30.9482 35.0322H46.8227V41.3022C48.3942 41.5541 49.8124 42.3906 50.7932 43.6441C51.774 44.8975 52.2449 46.4753 52.1115 48.0613C51.9782 49.6473 51.2504 51.1242 50.0741 52.1963C48.8977 53.2683 47.3597 53.8562 45.7682 53.8422V53.8337Z" fill="#E0E0E0"/>
<path d="M46 47C46.3956 47 46.7823 46.8827 47.1112 46.6629C47.4401 46.4432 47.6964 46.1308 47.8478 45.7654C47.9991 45.3999 48.0387 44.9978 47.9616 44.6098C47.8844 44.2219 47.6939 43.8655 47.4142 43.5858C47.1345 43.3061 46.7781 43.1156 46.3902 43.0384C46.0022 42.9613 45.6001 43.0009 45.2346 43.1522C44.8692 43.3036 44.5568 43.56 44.3371 43.8889C44.1173 44.2178 44 44.6044 44 45C44 45.5304 44.2107 46.0391 44.5858 46.4142C44.9609 46.7893 45.4696 47 46 47Z" fill="#E0E0E0"/>
</svg>
