<svg width="40" height="40" viewBox="0 0 40 40" fill="none" xmlns="http://www.w3.org/2000/svg">
<rect x="8" y="8" width="24" height="24" rx="12" fill="black"/>
<path fill-rule="evenodd" clip-rule="evenodd" d="M16.755 37.9477L15.8617 34.1535C14.8595 33.8621 13.9118 33.4683 13.0121 32.9817L9.30121 35.2806C8.33427 35.8857 7.20724 36.0746 6.40359 35.2806L4.71624 33.5804C3.90939 32.7863 4.15593 31.7074 4.71624 30.686L7.00232 26.9719C6.38438 25.8161 5.9073 24.5674 5.61594 23.2546L2.04915 22.3998C0.93172 22.15 0 21.4808 0 20.357V17.9588C0 16.835 0.93172 16.2395 2.04915 15.9161L6.14104 14.9524L7.30329 12.5222C6.63411 11.4464 5.96813 10.3674 5.30857 9.29158C4.69702 8.32464 4.51132 7.19443 5.30857 6.39719L7.00232 4.70664C7.80277 3.90299 8.87856 4.14633 9.89353 4.70664L13.3611 6.85184L15.7176 5.88811C16.041 4.6074 16.3868 3.32343 16.755 2.05232C17.0784 0.934896 17.6675 0 18.7977 0H21.1959C22.3261 0 22.9953 0.934896 23.245 2.05232L24.2152 5.87849L27.0423 7.05034C28.0509 6.4516 29.0659 5.86566 30.0969 5.29574C31.115 4.73863 32.1908 4.49529 32.9913 5.29574L34.6882 6.98951C35.4887 7.78676 35.2998 8.91699 34.6882 9.88713L32.9016 12.884L33.8013 14.8051C35.287 15.1669 36.6893 15.5415 37.9509 15.9097C39.0619 16.2331 40 16.8286 40 17.9588V20.357C40 21.4808 39.0683 22.1436 37.9509 22.3998L34.352 23.3155L33.2282 26.5236C33.9326 27.6955 34.6178 28.8962 35.287 30.0873C35.8441 31.1086 36.081 32.1876 35.287 32.9817L33.59 34.6786C32.7896 35.4823 31.6689 35.2869 30.702 34.6786L27.4298 32.7384C26.3988 33.3371 25.2974 33.8141 24.1383 34.1535L23.2546 37.9477C22.9953 39.0651 22.3325 40 21.2023 40H18.8041C17.6739 40 17.088 39.0587 16.755 37.9477ZM27.3305 20.0016C27.3305 15.9577 24.0455 12.6727 19.9952 12.6727C15.9642 12.6727 12.6791 15.9577 12.6791 20.0016C12.6791 24.0358 15.9642 27.3209 19.9952 27.3209C24.0455 27.3209 27.3305 24.0358 27.3305 20.0016Z" fill="white"/>
</svg>
