<svg width="1600" height="900" viewBox="0 0 1600 900" fill="none" xmlns="http://www.w3.org/2000/svg">
<line x1="39" x2="39" y2="900" stroke="white" stroke-opacity="0.15" stroke-width="8"/>
<line x1="141" x2="141" y2="900" stroke="white" stroke-opacity="0.15" stroke-width="8"/>
<line x1="243" x2="243" y2="900" stroke="white" stroke-opacity="0.15" stroke-width="8"/>
<line x1="345" x2="345" y2="900" stroke="white" stroke-opacity="0.15" stroke-width="8"/>
<line x1="447" x2="447" y2="900" stroke="white" stroke-opacity="0.15" stroke-width="8"/>
<line x1="549" x2="549" y2="900" stroke="white" stroke-opacity="0.15" stroke-width="8"/>
<line x1="651" x2="651" y2="900" stroke="white" stroke-opacity="0.15" stroke-width="8"/>
<line x1="753" x2="753" y2="900" stroke="white" stroke-opacity="0.15" stroke-width="8"/>
<line x1="855" x2="855" y2="900" stroke="white" stroke-opacity="0.15" stroke-width="8"/>
<line x1="957" x2="957" y2="900" stroke="white" stroke-opacity="0.15" stroke-width="8"/>
<line x1="1059" x2="1059" y2="900" stroke="white" stroke-opacity="0.15" stroke-width="8"/>
<line x1="1569" x2="1569" y2="900" stroke="white" stroke-opacity="0.15" stroke-width="8"/>
<line x1="1467" x2="1467" y2="900" stroke="white" stroke-opacity="0.15" stroke-width="8"/>
<line x1="1365" x2="1365" y2="900" stroke="white" stroke-opacity="0.15" stroke-width="8"/>
<line x1="1263" x2="1263" y2="900" stroke="white" stroke-opacity="0.15" stroke-width="8"/>
<line x1="1161" x2="1161" y2="900" stroke="white" stroke-opacity="0.15" stroke-width="8"/>
<line y1="47" x2="1600" y2="47" stroke="white" stroke-opacity="0.15" stroke-width="8"/>
<line y1="143" x2="1600" y2="143" stroke="white" stroke-opacity="0.15" stroke-width="8"/>
<line y1="239" x2="1600" y2="239" stroke="white" stroke-opacity="0.15" stroke-width="8"/>
<line y1="335" x2="1600" y2="335" stroke="white" stroke-opacity="0.15" stroke-width="8"/>
<line y1="431" x2="1600" y2="431" stroke="white" stroke-opacity="0.15" stroke-width="8"/>
<line y1="527" x2="1600" y2="527" stroke="white" stroke-opacity="0.15" stroke-width="8"/>
<line y1="623" x2="1600" y2="623" stroke="white" stroke-opacity="0.15" stroke-width="8"/>
<line y1="719" x2="1600" y2="719" stroke="white" stroke-opacity="0.15" stroke-width="8"/>
<line y1="815" x2="1600" y2="815" stroke="white" stroke-opacity="0.15" stroke-width="8"/>
</svg>
